<?xml version="1.0" encoding="UTF-8" standalone="no"?>
<svg
   xmlns:dc="http://purl.org/dc/elements/1.1/"
   xmlns:cc="http://creativecommons.org/ns#"
   xmlns:rdf="http://www.w3.org/1999/02/22-rdf-syntax-ns#"
   xmlns:svg="http://www.w3.org/2000/svg"
   xmlns="http://www.w3.org/2000/svg"
   xmlns:xlink="http://www.w3.org/1999/xlink"
   width="64"
   height="64"
   viewBox="0 0 16.933333 16.933333"
   version="1.1"
   id="svg8">
  <defs
     id="defs2">
    <linearGradient
       id="linearGradient879">
      <stop
         style="stop-color:#000000;stop-opacity:1;"
         offset="0"
         id="stop875" />
      <stop
         style="stop-color:#800080;stop-opacity:1"
         offset="1"
         id="stop877" />
    </linearGradient>
    <linearGradient
       xlink:href="#linearGradient879"
       id="linearGradient857"
       x1="0"
       y1="0"
       x2="16.933332"
       y2="16.933332"
       gradientUnits="userSpaceOnUse"
       gradientTransform="matrix(0.99095495,0,0,0.99095495,0.07658143,0.07658143)" />
    <linearGradient
       xlink:href="#linearGradient879"
       id="linearGradient873"
       x1="0"
       y1="0"
       x2="16.933332"
       y2="16.933332"
       gradientUnits="userSpaceOnUse"
       gradientTransform="matrix(0.99095495,0,0,0.99095495,0.07658143,0.07658143)" />
  </defs>
  <metadata
     id="metadata5">
    <rdf:RDF>
      <cc:Work
         rdf:about="">
        <dc:format>image/svg+xml</dc:format>
        <dc:type
           rdf:resource="http://purl.org/dc/dcmitype/StillImage" />
        <dc:title></dc:title>
      </cc:Work>
    </rdf:RDF>
  </metadata>
  <g
     id="layer1">
    <circle
       style="fill:url(#linearGradient857);fill-opacity:1.0;stroke:url(#linearGradient873);stroke-width:0;stroke-linecap:round;stroke-opacity:1"
       id="path833"
       cx="8.4666662"
       cy="8.4666672"
       r="8.3900852" />
    <g
       id="g1414"
       transform="matrix(0.99095495,0,0,0.99095495,-0.06265006,0.29134389)">
      <path
         id="path1086-1-2-7-0"
         style="color:#000000;font-style:normal;font-variant:normal;font-weight:normal;font-stretch:normal;font-size:medium;line-height:normal;font-family:sans-serif;font-variant-ligatures:normal;font-variant-position:normal;font-variant-caps:normal;font-variant-numeric:normal;font-variant-alternates:normal;font-variant-east-asian:normal;font-feature-settings:normal;font-variation-settings:normal;text-indent:0;text-align:start;text-decoration:none;text-decoration-line:none;text-decoration-style:solid;text-decoration-color:#000000;letter-spacing:normal;word-spacing:normal;text-transform:none;writing-mode:lr-tb;direction:ltr;text-orientation:mixed;dominant-baseline:auto;baseline-shift:baseline;text-anchor:start;white-space:normal;shape-padding:0;shape-margin:0;inline-size:0;clip-rule:nonzero;display:inline;overflow:visible;visibility:visible;isolation:auto;mix-blend-mode:normal;color-interpolation:sRGB;color-interpolation-filters:linearRGB;solid-color:#000000;solid-opacity:1;vector-effect:none;fill:#ffffff;fill-opacity:1;fill-rule:nonzero;stroke:#fffffe;stroke-width:0.110835;stroke-linecap:round;stroke-linejoin:miter;stroke-miterlimit:4;stroke-dasharray:none;stroke-dashoffset:0;stroke-opacity:1;color-rendering:auto;image-rendering:auto;shape-rendering:auto;text-rendering:auto;enable-background:accumulate;stop-color:#000000"
         d="m 3.8064868,9.5645598 c -0.9645009,0.9645022 -0.9649376,2.5377162 -4.389e-4,3.5022172 0.9645009,0.9645 2.5537066,0.978118 3.5043989,0 l 2.0649453,-2.124513 c -0.4423882,0.09499 -0.8649513,0.103375 -1.3023874,-0.002 l -1.4400093,1.450763 c -0.6013574,0.601356 -1.547698,0.601793 -2.1490554,4.4e-4 -0.6013574,-0.601359 -0.6013574,-1.548136 0,-2.149497 L 7.1490372,7.5454764 C 7.632319,7.1505431 8.1089496,7.140067 8.2975371,7.1400657 c 0.6099782,0 1.3020826,0.4466327 1.5147657,1.0378652 L 10.414576,7.5458413 C 10.077443,6.6958223 9.0670398,6.1586981 8.2237844,6.1464265 c -0.015894,0 -0.031754,0.00187 -0.047637,0.00223 C 7.5523138,6.1668995 6.928918,6.4159823 6.4458013,6.8990987 l -0.00132,-0.00132 z" />
      <path
         id="path1086-1-2-7-0-9"
         style="color:#000000;font-style:normal;font-variant:normal;font-weight:normal;font-stretch:normal;font-size:medium;line-height:normal;font-family:sans-serif;font-variant-ligatures:normal;font-variant-position:normal;font-variant-caps:normal;font-variant-numeric:normal;font-variant-alternates:normal;font-variant-east-asian:normal;font-feature-settings:normal;font-variation-settings:normal;text-indent:0;text-align:start;text-decoration:none;text-decoration-line:none;text-decoration-style:solid;text-decoration-color:#000000;letter-spacing:normal;word-spacing:normal;text-transform:none;writing-mode:lr-tb;direction:ltr;text-orientation:mixed;dominant-baseline:auto;baseline-shift:baseline;text-anchor:start;white-space:normal;shape-padding:0;shape-margin:0;inline-size:0;clip-rule:nonzero;display:inline;overflow:visible;visibility:visible;isolation:auto;mix-blend-mode:normal;color-interpolation:sRGB;color-interpolation-filters:linearRGB;solid-color:#000000;solid-opacity:1;vector-effect:none;fill:#ffffff;fill-opacity:1;fill-rule:nonzero;stroke:#fffffe;stroke-width:0.110835;stroke-linecap:round;stroke-linejoin:miter;stroke-miterlimit:4;stroke-dasharray:none;stroke-dashoffset:0;stroke-opacity:1;color-rendering:auto;image-rendering:auto;shape-rendering:auto;text-rendering:auto;enable-background:accumulate;stop-color:#000000"
         d="m 13.40785,6.9353293 c 0.964501,-0.9645022 0.964938,-2.5377166 4.4e-4,-3.5022175 -0.964501,-0.9644997 -2.553706,-0.978118 -3.5043988,0 L 7.8389461,5.557625 c 0.442388,-0.094985 0.8649513,-0.1033756 1.3023872,0.002 L 10.581343,4.108856 c 0.601357,-0.6013563 1.547698,-0.601793 2.149055,-4.4e-4 0.601357,0.6013584 0.601357,1.5481357 0,2.1494964 L 10.0653,8.9544128 C 9.5820182,9.3493459 9.1053876,9.359822 8.9168,9.3598232 c -0.609978,0 -1.3020826,-0.4466321 -1.5147656,-1.0378647 L 6.7997611,8.9540482 c 0.3371336,0.8500185 1.3475362,1.3871428 2.1907917,1.3994148 0.015894,0 0.031754,-0.0019 0.047637,-0.0022 0.6238334,-0.01824 1.2472292,-0.267326 1.7303462,-0.7504425 l 0.0013,0.00133 z" />
    </g>
  </g>
</svg>
